<!-- icon666.com - MILLIONS vector ICONS FREE --><svg enable-background="new 0 0 32 32" viewBox="0 0 32 32" xmlns="http://www.w3.org/2000/svg"><g id="United_States__x2C__USA"><path d="m20.354 1.938h-8.708c-5.354 0-9.709 4.355-9.709 9.708v8.709c0 5.353 4.355 9.708 9.709 9.708h8.708c5.353 0 9.708-4.355 9.708-9.708v-8.709c.001-5.354-4.355-9.708-9.708-9.708z" fill="#e64c3c"></path><path d="m29.726 9.151h-27.452c-.213.797-.337 1.631-.337 2.494v2.458h28.125v-2.458c.001-.863-.124-1.696-.336-2.494z" fill="#efefef"></path><path d="m30.063 20.354v-1.296h-28.125v1.296c0 1.294.26 2.528.722 3.659h26.682c.461-1.13.721-2.364.721-3.659z" fill="#efefef"></path><path d="m15.019 14.105v-12.167h-3.372c-5.354 0-9.709 4.355-9.709 9.708v2.459z" fill="#285680"></path><g><path d="m10.793 11.6-1.864-.977-1.862.977c-.37.068-.34-.245-.34-.245l.355-2.073-1.502-1.467s-.232-.345.132-.398l2.079-.303.934-1.884s.21-.324.419 0l.934 1.884 2.078.303c.335.049.132.398.132.398l-1.506 1.466.353 2.073c-.001.001.045.345-.342.246z" fill="#efefef"></path></g><path d="m30.06 11.65v8.7c0 5.36-4.35 9.71-9.71 9.71h-8.7c-1.141 0-2.23-.2-3.25-.56l8.77-.75c9.061-1.25 9.41-7.37 9.41-7.37l-.04-10.63s-.19-6.25-7.72-8.81h1.529c5.361 0 9.711 4.35 9.711 9.71z" fill="#160204" opacity=".13"></path><path d="m1.94 20.35v-8.7c0-5.36 4.35-9.71 9.71-9.71h3.369c-2.64.53-9.77 2.58-10.85 9.14l-.05 10.7s.26 4.36 2.189 6.68c-2.628-1.74-4.368-4.72-4.368-8.11z" fill="#fff" opacity=".2"></path></g></svg>